<?xml version="1.0" encoding="utf-8" standalone="no"?>
<!DOCTYPE svg PUBLIC "-//W3C//DTD SVG 1.1//EN"
  "http://www.w3.org/Graphics/SVG/1.1/DTD/svg11.dtd">
<!-- Created with matplotlib (http://matplotlib.org/) -->
<svg height="514pt" version="1.1" viewBox="0 0 514 514" width="514pt" xmlns="http://www.w3.org/2000/svg" xmlns:xlink="http://www.w3.org/1999/xlink">
 <defs>
  <style type="text/css">
*{stroke-linecap:square;stroke-linejoin:round;}
  </style>
 </defs>
 <g id="figure_1">
  <g id="patch_1">
   <path d="
M0 514.8
L514.8 514.8
L514.8 0
L0 0
z
" style="fill:#ffffff;"/>
  </g>
  <g id="axes_1">
   <g id="patch_2">
    <path d="
M64.35 463.32
L463.32 463.32
L463.32 51.48
L64.35 51.48
z
" style="fill:#ffffff;"/>
   </g>
   <g id="line2d_1">
    <path clip-path="url(#p8f06d93501)" d="
M263.835 257.4
L396.825 257.4
L396.714 251.794
L396.381 246.196
L395.828 240.618
L395.053 235.068
L394.06 229.554
L392.85 224.088
L391.425 218.677
L389.786 213.33
L387.937 208.057
L385.882 202.867
L383.622 197.767
L381.163 192.767
L378.508 187.875
L375.662 183.098
L372.629 178.446
L369.415 173.926
L366.024 169.544
L362.463 165.31
L358.737 161.229
L357.855 160.309
L263.835 257.4
L263.835 257.4
L263.835 257.4
L357.855 160.309
L353.935 156.427
L349.865 152.713
L345.651 149.173
L341.301 145.814
L336.822 142.642
L332.221 139.661
L327.506 136.876
L322.684 134.292
L317.765 131.914
L312.755 129.745
L307.664 127.789
L302.499 126.05
L297.27 124.529
L291.986 123.231
L286.654 122.156
L281.284 121.307
L275.885 120.685
L270.466 120.291
L265.036 120.126
L263.783 120.12
L263.835 257.4
L263.835 257.4
L263.835 257.4
L263.783 120.12
L258.352 120.237
L252.929 120.582
L247.526 121.156
L242.149 121.957
L236.808 122.985
L231.513 124.236
L226.272 125.71
L221.093 127.403
L215.985 129.314
L210.958 131.438
L206.018 133.772
L201.176 136.312
L196.437 139.055
L191.811 141.995
L187.306 145.128
L182.928 148.447
L178.685 151.949
L174.584 155.627
L170.632 159.474
L169.741 160.386
L263.835 257.4
L263.835 257.4
L263.835 257.4
L169.741 160.386
L165.982 164.433
L162.385 168.636
L158.958 172.987
L155.706 177.479
L152.634 182.104
L149.748 186.854
L147.052 191.723
L144.551 196.701
L142.249 201.78
L140.15 206.952
L138.257 212.208
L136.574 217.54
L135.103 222.938
L133.847 228.394
L132.808 233.898
L131.988 239.441
L131.387 245.015
L131.008 250.608
L130.85 256.214
L130.845 257.508
L263.835 257.4
L263.835 257.4
L263.835 257.4
L130.845 257.508
L130.96 263.114
L131.297 268.711
L131.855 274.289
L132.634 279.839
L133.631 285.351
L134.845 290.817
L136.275 296.227
L137.917 301.572
L139.77 306.843
L141.83 312.032
L144.093 317.13
L146.556 322.128
L149.215 327.018
L152.065 331.792
L155.101 336.442
L158.319 340.96
L161.713 345.339
L165.277 349.57
L169.006 353.648
L169.889 354.567
L263.835 257.4
L263.835 257.4
L263.835 257.4
L169.889 354.567
L173.812 358.446
L177.885 362.157
L182.101 365.693
L186.454 369.048
L190.935 372.217
L195.539 375.195
L200.256 377.976
L205.079 380.555
L210.001 382.93
L215.012 385.094
L220.105 387.046
L225.271 388.781
L230.501 390.298
L235.786 391.592
L241.119 392.663
L246.489 393.507
L251.889 394.125
L257.308 394.515
L262.738 394.675
L263.992 394.68
L263.835 257.4
L263.835 257.4
L263.835 257.4
L263.992 394.68
L269.423 394.559
L274.845 394.209
L280.248 393.631
L285.624 392.825
L290.964 391.793
L296.258 390.538
L301.498 389.06
L306.676 387.362
L311.782 385.448
L316.808 383.319
L321.746 380.981
L326.586 378.437
L331.323 375.69
L335.946 372.747
L340.45 369.61
L344.825 366.287
L349.066 362.782
L353.164 359.101
L357.113 355.25
L358.002 354.338
L263.835 257.4
L263.835 257.4
L263.835 257.4
L358.002 354.338
L361.759 350.287
L365.352 346.082
L368.776 341.728
L372.025 337.234
L375.093 332.606
L377.976 327.853
L380.668 322.983
L383.165 318.003
L385.463 312.921
L387.558 307.748
L389.447 302.49
L391.126 297.157
L392.593 291.757
L393.845 286.301
L394.879 280.796
L395.696 275.252
L396.292 269.678
L396.667 264.084
L396.821 258.478
L396.825 257.4
L263.835 257.4
L263.835 257.4" style="fill:none;stroke:#ff0000;stroke-width:0.75;"/>
   </g>
   <g id="mpl_toolkits.axisartist.axis_artist_1">
    <defs>
     <path d="
M0 0
L2.44929e-16 -4" id="m5884616ec4" style="stroke:#000000;stroke-linecap:butt;stroke-width:0.5;"/>
    </defs>
    <g>
     <use style="fill:none;stroke:#000000;stroke-linecap:butt;stroke-width:0.5;" x="86.5149521224" xlink:href="#m5884616ec4" y="303.16000353"/>
     <use style="fill:none;stroke:#000000;stroke-linecap:butt;stroke-width:0.5;" x="86.5149521224" xlink:href="#m5884616ec4" y="303.16000353"/>
    </g>
    <g>
     <use style="fill:none;stroke:#000000;stroke-linecap:butt;stroke-width:0.5;" x="130.844958962" xlink:href="#m5884616ec4" y="303.16000353"/>
     <use style="fill:none;stroke:#000000;stroke-linecap:butt;stroke-width:0.5;" x="130.844958962" xlink:href="#m5884616ec4" y="303.16000353"/>
    </g>
    <g>
     <use style="fill:none;stroke:#000000;stroke-linecap:butt;stroke-width:0.5;" x="175.174965802" xlink:href="#m5884616ec4" y="303.16000353"/>
     <use style="fill:none;stroke:#000000;stroke-linecap:butt;stroke-width:0.5;" x="175.174965802" xlink:href="#m5884616ec4" y="303.16000353"/>
    </g>
    <g>
     <use style="fill:none;stroke:#000000;stroke-linecap:butt;stroke-width:0.5;" x="219.504972641" xlink:href="#m5884616ec4" y="303.16000353"/>
     <use style="fill:none;stroke:#000000;stroke-linecap:butt;stroke-width:0.5;" x="219.504972641" xlink:href="#m5884616ec4" y="303.16000353"/>
    </g>
    <g>
     <use style="fill:none;stroke:#000000;stroke-linecap:butt;stroke-width:0.5;" x="263.834979481" xlink:href="#m5884616ec4" y="303.16000353"/>
     <use style="fill:none;stroke:#000000;stroke-linecap:butt;stroke-width:0.5;" x="263.834979481" xlink:href="#m5884616ec4" y="303.16000353"/>
    </g>
    <g>
     <use style="fill:none;stroke:#000000;stroke-linecap:butt;stroke-width:0.5;" x="308.164986321" xlink:href="#m5884616ec4" y="303.16000353"/>
     <use style="fill:none;stroke:#000000;stroke-linecap:butt;stroke-width:0.5;" x="308.164986321" xlink:href="#m5884616ec4" y="303.16000353"/>
    </g>
    <g>
     <use style="fill:none;stroke:#000000;stroke-linecap:butt;stroke-width:0.5;" x="352.49499316" xlink:href="#m5884616ec4" y="303.16000353"/>
     <use style="fill:none;stroke:#000000;stroke-linecap:butt;stroke-width:0.5;" x="352.49499316" xlink:href="#m5884616ec4" y="303.16000353"/>
    </g>
    <g>
     <use style="fill:none;stroke:#000000;stroke-linecap:butt;stroke-width:0.5;" x="396.825" xlink:href="#m5884616ec4" y="303.16000353"/>
     <use style="fill:none;stroke:#000000;stroke-linecap:butt;stroke-width:0.5;" x="396.825" xlink:href="#m5884616ec4" y="303.16000353"/>
    </g>
    <g>
     <use style="fill:none;stroke:#000000;stroke-linecap:butt;stroke-width:0.5;" x="441.15500684" xlink:href="#m5884616ec4" y="303.16000353"/>
     <use style="fill:none;stroke:#000000;stroke-linecap:butt;stroke-width:0.5;" x="441.15500684" xlink:href="#m5884616ec4" y="303.16000353"/>
    </g>
    <g id="text_1">
     <!-- −6 -->
     <defs>
      <path d="
M10.5938 35.5
L73.1875 35.5
L73.1875 27.2031
L10.5938 27.2031
z
" id="BitstreamVeraSans-Roman-2212"/>
      <path d="
M33.0156 40.375
Q26.375 40.375 22.4844 35.8281
Q18.6094 31.2969 18.6094 23.3906
Q18.6094 15.5313 22.4844 10.9531
Q26.375 6.39063 33.0156 6.39063
Q39.6563 6.39063 43.5313 10.9531
Q47.4063 15.5313 47.4063 23.3906
Q47.4063 31.2969 43.5313 35.8281
Q39.6563 40.375 33.0156 40.375
M52.5938 71.2969
L52.5938 62.3125
Q48.875 64.0625 45.0938 64.9844
Q41.3125 65.9219 37.5938 65.9219
Q27.8281 65.9219 22.6719 59.3281
Q17.5313 52.7344 16.7969 39.4063
Q19.6719 43.6563 24.0156 45.9219
Q28.375 48.1875 33.5938 48.1875
Q44.5781 48.1875 50.9531 41.5156
Q57.3281 34.8594 57.3281 23.3906
Q57.3281 12.1563 50.6875 5.35938
Q44.0469 -1.42188 33.0156 -1.42188
Q20.3594 -1.42188 13.6719 8.26563
Q6.98438 17.9688 6.98438 36.375
Q6.98438 53.6563 15.1875 63.9375
Q23.3906 74.2188 37.2031 74.2188
Q40.9219 74.2188 44.7031 73.4844
Q48.4844 72.75 52.5938 71.2969" id="BitstreamVeraSans-Roman-36"/>
     </defs>
     <g transform="translate(78.6830771224 316.06625353)scale(0.12 -0.12)">
      <use xlink:href="#BitstreamVeraSans-Roman-2212"/>
      <use x="83.7890625" xlink:href="#BitstreamVeraSans-Roman-36"/>
     </g>
    </g>
    <g id="text_2">
     <!-- −5 -->
     <defs>
      <path d="
M10.7969 72.9063
L49.5156 72.9063
L49.5156 64.5938
L19.8281 64.5938
L19.8281 46.7344
Q21.9688 47.4688 24.1094 47.8281
Q26.2656 48.1875 28.4219 48.1875
Q40.625 48.1875 47.75 41.5
Q54.8906 34.8125 54.8906 23.3906
Q54.8906 11.625 47.5625 5.09375
Q40.2344 -1.42188 26.9063 -1.42188
Q22.3125 -1.42188 17.5469 -0.640625
Q12.7969 0.140625 7.71875 1.70313
L7.71875 11.625
Q12.1094 9.23438 16.7969 8.0625
Q21.4844 6.89063 26.7031 6.89063
Q35.1563 6.89063 40.0781 11.3281
Q45.0156 15.7656 45.0156 23.3906
Q45.0156 31 40.0781 35.4375
Q35.1563 39.8906 26.7031 39.8906
Q22.75 39.8906 18.8125 39.0156
Q14.8906 38.1406 10.7969 36.2813
z
" id="BitstreamVeraSans-Roman-35"/>
     </defs>
     <g transform="translate(123.159333962 316.06625353)scale(0.12 -0.12)">
      <use xlink:href="#BitstreamVeraSans-Roman-2212"/>
      <use x="83.7890625" xlink:href="#BitstreamVeraSans-Roman-35"/>
     </g>
    </g>
    <g id="text_3">
     <!-- −4 -->
     <defs>
      <path d="
M37.7969 64.3125
L12.8906 25.3906
L37.7969 25.3906
z

M35.2031 72.9063
L47.6094 72.9063
L47.6094 25.3906
L58.0156 25.3906
L58.0156 17.1875
L47.6094 17.1875
L47.6094 0
L37.7969 0
L37.7969 17.1875
L4.89063 17.1875
L4.89063 26.7031
z
" id="BitstreamVeraSans-Roman-34"/>
     </defs>
     <g transform="translate(167.301840802 316.06625353)scale(0.12 -0.12)">
      <use xlink:href="#BitstreamVeraSans-Roman-2212"/>
      <use x="83.7890625" xlink:href="#BitstreamVeraSans-Roman-34"/>
     </g>
    </g>
    <g id="text_4">
     <!-- −3 -->
     <defs>
      <path d="
M40.5781 39.3125
Q47.6563 37.7969 51.625 33
Q55.6094 28.2188 55.6094 21.1875
Q55.6094 10.4063 48.1875 4.48438
Q40.7656 -1.42188 27.0938 -1.42188
Q22.5156 -1.42188 17.6563 -0.515625
Q12.7969 0.390625 7.625 2.20313
L7.625 11.7188
Q11.7188 9.32813 16.5938 8.10938
Q21.4844 6.89063 26.8125 6.89063
Q36.0781 6.89063 40.9375 10.5469
Q45.7969 14.2031 45.7969 21.1875
Q45.7969 27.6406 41.2813 31.2656
Q36.7656 34.9063 28.7188 34.9063
L20.2188 34.9063
L20.2188 43.0156
L29.1094 43.0156
Q36.375 43.0156 40.2344 45.9219
Q44.0938 48.8281 44.0938 54.2969
Q44.0938 59.9063 40.1094 62.9063
Q36.1406 65.9219 28.7188 65.9219
Q24.6563 65.9219 20.0156 65.0313
Q15.375 64.1563 9.8125 62.3125
L9.8125 71.0938
Q15.4375 72.6563 20.3438 73.4375
Q25.25 74.2188 29.5938 74.2188
Q40.8281 74.2188 47.3594 69.1094
Q53.9063 64.0156 53.9063 55.3281
Q53.9063 49.2656 50.4375 45.0938
Q46.9688 40.9219 40.5781 39.3125" id="BitstreamVeraSans-Roman-33"/>
     </defs>
     <g transform="translate(211.776222641 316.06625353)scale(0.12 -0.12)">
      <use xlink:href="#BitstreamVeraSans-Roman-2212"/>
      <use x="83.7890625" xlink:href="#BitstreamVeraSans-Roman-33"/>
     </g>
    </g>
    <g id="text_5">
     <!-- −2 -->
     <defs>
      <path d="
M19.1875 8.29688
L53.6094 8.29688
L53.6094 0
L7.32813 0
L7.32813 8.29688
Q12.9375 14.1094 22.625 23.8906
Q32.3281 33.6875 34.8125 36.5313
Q39.5469 41.8438 41.4219 45.5313
Q43.3125 49.2188 43.3125 52.7813
Q43.3125 58.5938 39.2344 62.25
Q35.1563 65.9219 28.6094 65.9219
Q23.9688 65.9219 18.8125 64.3125
Q13.6719 62.7031 7.8125 59.4219
L7.8125 69.3906
Q13.7656 71.7813 18.9375 73
Q24.125 74.2188 28.4219 74.2188
Q39.75 74.2188 46.4844 68.5469
Q53.2188 62.8906 53.2188 53.4219
Q53.2188 48.9219 51.5313 44.8906
Q49.8594 40.875 45.4063 35.4063
Q44.1875 33.9844 37.6406 27.2188
Q31.1094 20.4531 19.1875 8.29688" id="BitstreamVeraSans-Roman-32"/>
     </defs>
     <g transform="translate(256.226229481 316.06625353)scale(0.12 -0.12)">
      <use xlink:href="#BitstreamVeraSans-Roman-2212"/>
      <use x="83.7890625" xlink:href="#BitstreamVeraSans-Roman-32"/>
     </g>
    </g>
    <g id="text_6">
     <!-- −1 -->
     <defs>
      <path d="
M12.4063 8.29688
L28.5156 8.29688
L28.5156 63.9219
L10.9844 60.4063
L10.9844 69.3906
L28.4219 72.9063
L38.2813 72.9063
L38.2813 8.29688
L54.3906 8.29688
L54.3906 0
L12.4063 0
z
" id="BitstreamVeraSans-Roman-31"/>
     </defs>
     <g transform="translate(300.509361321 316.06625353)scale(0.12 -0.12)">
      <use xlink:href="#BitstreamVeraSans-Roman-2212"/>
      <use x="83.7890625" xlink:href="#BitstreamVeraSans-Roman-31"/>
     </g>
    </g>
    <g id="text_7">
     <!-- 0 -->
     <defs>
      <path d="
M31.7813 66.4063
Q24.1719 66.4063 20.3281 58.9063
Q16.5 51.4219 16.5 36.375
Q16.5 21.3906 20.3281 13.8906
Q24.1719 6.39063 31.7813 6.39063
Q39.4531 6.39063 43.2813 13.8906
Q47.125 21.3906 47.125 36.375
Q47.125 51.4219 43.2813 58.9063
Q39.4531 66.4063 31.7813 66.4063
M31.7813 74.2188
Q44.0469 74.2188 50.5156 64.5156
Q56.9844 54.8281 56.9844 36.375
Q56.9844 17.9688 50.5156 8.26563
Q44.0469 -1.42188 31.7813 -1.42188
Q19.5313 -1.42188 13.0625 8.26563
Q6.59375 17.9688 6.59375 36.375
Q6.59375 54.8281 13.0625 64.5156
Q19.5313 74.2188 31.7813 74.2188" id="BitstreamVeraSans-Roman-30"/>
     </defs>
     <g transform="translate(349.47155566 316.06625353)scale(0.12 -0.12)">
      <use xlink:href="#BitstreamVeraSans-Roman-30"/>
     </g>
    </g>
    <g id="text_8">
     <!-- 1 -->
     <g transform="translate(394.220625 316.06625353)scale(0.12 -0.12)">
      <use xlink:href="#BitstreamVeraSans-Roman-31"/>
     </g>
    </g>
    <g id="text_9">
     <!-- 2 -->
     <g transform="translate(438.37813184 316.06625353)scale(0.12 -0.12)">
      <use xlink:href="#BitstreamVeraSans-Roman-32"/>
     </g>
    </g>
    <g id="patch_3">
     <path d="
M64.35 303.16
L463.32 303.16
L474.202 303.16" style="fill:none;stroke:#000000;stroke-linecap:round;"/>
     <path d="
M469.402 300.76
L474.202 303.16
L469.402 305.56
L469.402 300.76
z
" style="fill:#0000ff;stroke:#000000;stroke-linecap:round;"/>
    </g>
   </g>
   <g id="mpl_toolkits.axisartist.axis_artist_2">
    <defs>
     <path d="
M0 0
L-4 -4.89859e-16" id="maca8706ae2" style="stroke:#000000;stroke-linecap:butt;stroke-width:0.5;"/>
    </defs>
    <g>
     <use style="fill:none;stroke:#000000;stroke-linecap:butt;stroke-width:0.5;" x="352.49499316" xlink:href="#maca8706ae2" y="440.440014121"/>
     <use style="fill:none;stroke:#000000;stroke-linecap:butt;stroke-width:0.5;" x="352.49499316" xlink:href="#maca8706ae2" y="440.440014121"/>
    </g>
    <g>
     <use style="fill:none;stroke:#000000;stroke-linecap:butt;stroke-width:0.5;" x="352.49499316" xlink:href="#maca8706ae2" y="394.68001059"/>
     <use style="fill:none;stroke:#000000;stroke-linecap:butt;stroke-width:0.5;" x="352.49499316" xlink:href="#maca8706ae2" y="394.68001059"/>
    </g>
    <g>
     <use style="fill:none;stroke:#000000;stroke-linecap:butt;stroke-width:0.5;" x="352.49499316" xlink:href="#maca8706ae2" y="348.92000706"/>
     <use style="fill:none;stroke:#000000;stroke-linecap:butt;stroke-width:0.5;" x="352.49499316" xlink:href="#maca8706ae2" y="348.92000706"/>
    </g>
    <g>
     <use style="fill:none;stroke:#000000;stroke-linecap:butt;stroke-width:0.5;" x="352.49499316" xlink:href="#maca8706ae2" y="303.16000353"/>
     <use style="fill:none;stroke:#000000;stroke-linecap:butt;stroke-width:0.5;" x="352.49499316" xlink:href="#maca8706ae2" y="303.16000353"/>
    </g>
    <g>
     <use style="fill:none;stroke:#000000;stroke-linecap:butt;stroke-width:0.5;" x="352.49499316" xlink:href="#maca8706ae2" y="257.4"/>
     <use style="fill:none;stroke:#000000;stroke-linecap:butt;stroke-width:0.5;" x="352.49499316" xlink:href="#maca8706ae2" y="257.4"/>
    </g>
    <g>
     <use style="fill:none;stroke:#000000;stroke-linecap:butt;stroke-width:0.5;" x="352.49499316" xlink:href="#maca8706ae2" y="211.63999647"/>
     <use style="fill:none;stroke:#000000;stroke-linecap:butt;stroke-width:0.5;" x="352.49499316" xlink:href="#maca8706ae2" y="211.63999647"/>
    </g>
    <g>
     <use style="fill:none;stroke:#000000;stroke-linecap:butt;stroke-width:0.5;" x="352.49499316" xlink:href="#maca8706ae2" y="165.87999294"/>
     <use style="fill:none;stroke:#000000;stroke-linecap:butt;stroke-width:0.5;" x="352.49499316" xlink:href="#maca8706ae2" y="165.87999294"/>
    </g>
    <g>
     <use style="fill:none;stroke:#000000;stroke-linecap:butt;stroke-width:0.5;" x="352.49499316" xlink:href="#maca8706ae2" y="120.11998941"/>
     <use style="fill:none;stroke:#000000;stroke-linecap:butt;stroke-width:0.5;" x="352.49499316" xlink:href="#maca8706ae2" y="120.11998941"/>
    </g>
    <g>
     <use style="fill:none;stroke:#000000;stroke-linecap:butt;stroke-width:0.5;" x="352.49499316" xlink:href="#maca8706ae2" y="74.3599858794"/>
     <use style="fill:none;stroke:#000000;stroke-linecap:butt;stroke-width:0.5;" x="352.49499316" xlink:href="#maca8706ae2" y="74.3599858794"/>
    </g>
    <g id="text_10">
     <!-- −3 -->
     <g transform="translate(365.57186816 447.998139121)rotate(-90.0)scale(0.12 -0.12)">
      <use xlink:href="#BitstreamVeraSans-Roman-2212"/>
      <use x="83.7890625" xlink:href="#BitstreamVeraSans-Roman-33"/>
     </g>
    </g>
    <g id="text_11">
     <!-- −2 -->
     <g transform="translate(365.40124316 402.28876059)rotate(-90.0)scale(0.12 -0.12)">
      <use xlink:href="#BitstreamVeraSans-Roman-2212"/>
      <use x="83.7890625" xlink:href="#BitstreamVeraSans-Roman-32"/>
     </g>
    </g>
    <g id="text_12">
     <!-- −1 -->
     <g transform="translate(365.40124316 356.57563206)rotate(-90.0)scale(0.12 -0.12)">
      <use xlink:href="#BitstreamVeraSans-Roman-2212"/>
      <use x="83.7890625" xlink:href="#BitstreamVeraSans-Roman-31"/>
     </g>
    </g>
    <g id="text_13">
     <!-- 0 -->
     <g transform="translate(365.57186816 306.01281603)rotate(-90.0)scale(0.12 -0.12)">
      <use xlink:href="#BitstreamVeraSans-Roman-30"/>
     </g>
    </g>
    <g id="text_14">
     <!-- 1 -->
     <g transform="translate(365.40124316 260.004375)rotate(-90.0)scale(0.12 -0.12)">
      <use xlink:href="#BitstreamVeraSans-Roman-31"/>
     </g>
    </g>
    <g id="text_15">
     <!-- 2 -->
     <g transform="translate(365.40124316 214.41687147)rotate(-90.0)scale(0.12 -0.12)">
      <use xlink:href="#BitstreamVeraSans-Roman-32"/>
     </g>
    </g>
    <g id="text_16">
     <!-- 3 -->
     <g transform="translate(365.57186816 168.58843044)rotate(-90.0)scale(0.12 -0.12)">
      <use xlink:href="#BitstreamVeraSans-Roman-33"/>
     </g>
    </g>
    <g id="text_17">
     <!-- 4 -->
     <g transform="translate(365.40124316 123.30748941)rotate(-90.0)scale(0.12 -0.12)">
      <use xlink:href="#BitstreamVeraSans-Roman-34"/>
     </g>
    </g>
    <g id="text_18">
     <!-- 5 -->
     <g transform="translate(365.57186816 77.0196733794)rotate(-90.0)scale(0.12 -0.12)">
      <use xlink:href="#BitstreamVeraSans-Roman-35"/>
     </g>
    </g>
    <g id="patch_4">
     <path d="
M352.495 463.32
L352.495 51.48
L352.495 40.598" style="fill:none;stroke:#000000;stroke-linecap:round;"/>
     <path d="
M350.095 45.398
L352.495 40.598
L354.895 45.398
L350.095 45.398
z
" style="fill:#0000ff;stroke:#000000;stroke-linecap:round;"/>
    </g>
   </g>
  </g>
 </g>
 <defs>
  <clipPath id="p8f06d93501">
   <rect height="411.84" width="398.97" x="64.35" y="51.48"/>
  </clipPath>
 </defs>
</svg>
